PathFileType	4	(X/Y/Z)	C:/Users/opensim2020/Desktop/walking_exp_matlab/subject03_walking14_straight_02.trc	
DataRate	CameraRate	NumFrames	NumMarkers	Units	OrigDataRate	OrigDataStartFrame	OrigNumFrames	
100.00	100.00	6	47	mm	100.00	1065	168	
Frame#	Time	LFHD			RFHD			LBHD			RBHD			C7			T10			CLAV			STRN			RBAK			LSHO			LUPA			LELB			LFRM			LWRA			LWRB			LFIN			RSHO			RUPA			RELB			RFRM			RWRA			RWRB			RFIN			LASI			RASI			LPSI			RPSI			LTHI			LKNE			LTIB			LANK			LHEE			LTOE			RTHI			RKNE			RTIB			RANK			RHEE			RTOE			*39			*40			*41			*42			*43			*44			*45			*46			
		X1	Y1	Z1	X2	Y2	Z2	X3	Y3	Z3	X4	Y4	Z4	X5	Y5	Z5	X6	Y6	Z6	X7	Y7	Z7	X8	Y8	Z8	X9	Y9	Z9	X10	Y10	Z10	X11	Y11	Z11	X12	Y12	Z12	X13	Y13	Z13	X14	Y14	Z14	X15	Y15	Z15	X16	Y16	Z16	X17	Y17	Z17	X18	Y18	Z18	X19	Y19	Z19	X20	Y20	Z20	X21	Y21	Z21	X22	Y22	Z22	X23	Y23	Z23	X24	Y24	Z24	X25	Y25	Z25	X26	Y26	Z26	X27	Y27	Z27	X28	Y28	Z28	X29	Y29	Z29	X30	Y30	Z30	X31	Y31	Z31	X32	Y32	Z32	X33	Y33	Z33	X34	Y34	Z34	X35	Y35	Z35	X36	Y36	Z36	X37	Y37	Z37	X38	Y38	Z38	X39	Y39	Z39	X40	Y40	Z40	X41	Y41	Z41	X42	Y42	Z42	X43	Y43	Z43	X44	Y44	Z44	X45	Y45	Z45	X46	Y46	Z46	X47	Y47	Z47	

22	0.210	-915.49841	891.73376	1621.82397	-1047.73303	903.46661	1627.27930	-910.21338	1014.36597	1565.31750	-1040.72961	1021.21484	1570.49377	-974.72229	1032.20398	1404.91736	-978.46539	1049.92822	1093.85229	-974.95319	904.59186	1337.14941	-967.84528	850.44818	1174.37634	-1068.56848	1073.35950	1227.28406	-819.18475	958.24451	1373.61108	-749.04962	945.82001	1178.39294	-743.68134	914.00439	1059.01855	-761.55786	837.17786	958.15479	-811.66797	768.44080	870.71570	-760.25250	785.90778	856.29175	-784.74567	731.07239	796.48816	-1134.58313	953.81769	1357.10291	-1210.35547	960.39020	1135.25061	-1226.33105	951.93256	1022.91760	-1233.54163	949.17505	885.87366	-1203.54224	929.96875	785.86731	-1247.66138	961.82898	786.42120	-1238.27234	950.89191	711.19226	-862.80182	898.24005	923.15649	-1097.72778	879.36023	942.51868	-921.50195	1055.36865	947.57800	-1067.97559	1042.95544	971.95288	-828.76392	910.08405	617.30695	-852.55933	866.47748	443.62543	-865.30048	1023.04919	328.67032	-914.22015	1185.84265	204.76750	-954.15735	1235.34314	217.10538	-942.25079	1128.63403	66.83221	-1152.34888	910.09869	647.24408	-1109.58167	883.46613	471.67697	-1121.03589	930.98700	282.35269	-1081.03162	975.75781	69.68523	-1035.96448	1025.78540	37.40730	-1057.25867	837.29718	32.36121	-958.42120	983.62170	1674.71143																					 
23	0.220	-915.40417	878.83301	1622.69836	-1047.65747	890.41412	1628.04797	-910.15161	1001.64569	1566.59973	-1040.65564	1008.19250	1571.66711	-975.19489	1019.91284	1405.82043	-979.76410	1037.53625	1094.85059	-974.47461	892.36554	1338.20044	-967.38104	838.26624	1175.46875	-1070.02673	1060.37976	1228.48694	-819.17822	947.74786	1374.42456	-749.43781	937.08960	1178.62329	-743.71643	905.92590	1059.01038	-759.84229	830.96448	956.14569	-808.11584	763.43842	866.59180	-756.90198	782.24097	853.04376	-779.92456	728.74756	791.43481	-1134.51831	940.41345	1358.70679	-1211.06689	942.02277	1136.90833	-1227.28931	930.78577	1024.91772	-1235.23206	925.02026	888.02185	-1205.40466	904.22198	788.42548	-1250.08313	935.17621	788.47168	-1241.26904	922.18958	713.60327	-863.93524	885.55670	925.38800	-1098.48462	867.41705	943.06299	-921.73920	1043.04309	949.53406	-1068.55920	1030.54199	972.77484	-828.82050	890.82977	620.48877	-852.92090	842.97308	447.99026	-865.78632	996.03094	328.37866	-914.47876	1154.60986	198.98039	-954.65900	1205.43811	208.39813	-940.86444	1089.42676	65.44778	-1151.83704	901.73853	646.88788	-1109.26001	878.79382	470.87646	-1120.81543	928.42090	282.17606	-1080.95142	975.56702	69.89046	-1035.69397	1025.55493	37.78753	-1057.12561	837.28125	32.33553	-958.20978	970.31775	1675.72485																					 
24	0.230	-915.24023	865.92944	1623.38562	-1047.50781	877.33636	1628.68726	-910.09741	988.91461	1567.69604	-1040.56396	995.39618	1572.69934	-975.62518	1007.71783	1406.62012	-981.06219	1025.29614	1095.78735	-974.07678	880.18463	1339.10083	-967.02911	826.12494	1176.33521	-1071.30237	1047.41321	1229.68152	-819.16370	937.01337	1374.99695	-749.82916	928.13824	1178.75964	-743.58496	898.07739	1058.91418	-757.92719	825.00067	954.04639	-804.49060	758.89880	862.30621	-753.57141	779.04712	849.72461	-774.89966	726.84491	786.39978	-1134.39014	927.00989	1360.11218	-1211.72473	923.78528	1138.64648	-1228.21167	909.68134	1027.05322	-1236.83386	900.78510	890.45483	-1207.19885	878.32257	791.18433	-1252.37952	908.32526	790.82263	-1244.02783	893.34528	716.43683	-865.04626	873.18756	927.50238	-1099.22058	855.55182	943.21161	-922.01892	1030.79932	951.30511	-1069.17908	1018.11890	973.38666	-828.75726	871.89502	623.68652	-853.32843	819.89130	452.40842	-866.20819	968.90833	327.52179	-914.58325	1122.60449	192.05176	-954.94598	1174.41528	198.21739	-939.81464	1049.41187	63.12590	-1150.47278	894.24243	646.67572	-1108.95520	874.15100	470.06860	-1120.36572	925.79803	281.90659	-1080.73425	975.07043	69.97795	-1035.75610	1025.76978	38.31772	-1057.00696	837.21857	32.31890	-957.80249	957.17828	1677.05579																					 
25	0.240	-915.00702	853.05560	1623.88660	-1047.28650	864.31799	1629.19824	-910.01459	976.22577	1568.56812	-1040.45813	982.51935	1573.53442	-975.94995	995.40302	1407.26233	-982.17419	1012.92883	1096.49646	-973.69934	867.98602	1339.77393	-966.90430	814.01892	1176.98035	-1072.41760	1034.24353	1230.71301	-819.22003	926.09558	1375.35461	-750.06915	919.14099	1178.67151	-743.28864	890.46014	1058.56470	-755.94586	819.37695	951.72070	-800.64642	754.75177	857.91895	-750.12915	776.40839	846.23804	-769.69897	725.42432	781.42664	-1134.28528	913.63055	1361.43591	-1212.37671	905.65436	1140.43286	-1229.05054	888.70148	1029.27771	-1238.27429	876.45087	892.99194	-1208.77759	852.25500	794.02399	-1254.46509	881.37402	793.41077	-1246.56970	864.26318	719.54810	-865.87384	860.90393	929.34796	-1099.89978	843.75995	942.90375	-922.33124	1018.63062	952.83594	-1069.74658	1005.77716	973.81055	-828.56958	853.50006	626.97406	-853.75787	797.44830	456.90686	-866.48138	941.88287	326.20789	-914.55762	1089.78589	184.01254	-955.00342	1142.31873	186.73785	-938.06476	1008.31573	60.99240	-1149.73511	886.25299	646.80133	-1108.69385	869.57117	469.23395	-1120.37268	923.18481	281.77649	-1080.32983	974.88898	70.12365	-1035.78894	1025.54651	38.69571	-1056.91150	837.14233	32.29442	-957.99243	944.11108	1677.56287																					 
26	0.250	-914.73511	840.19763	1624.18518	-1047.01990	851.33081	1629.51172	-909.85059	963.47223	1569.16455	-1040.43530	969.73737	1574.18225	-976.25391	983.12378	1407.81458	-983.32532	1000.81122	1097.17896	-973.23505	855.91675	1340.39880	-966.92487	801.99384	1177.33960	-1073.59790	1021.35065	1231.69812	-819.20587	914.88684	1375.44153	-750.25220	909.76117	1178.40247	-742.92883	882.88794	1057.95654	-753.94196	813.94226	949.17255	-796.77960	750.98193	853.31836	-746.70258	774.23236	842.65936	-764.44598	724.33264	776.36371	-1134.11768	900.27173	1362.57837	-1213.03076	887.76355	1142.17993	-1229.88062	867.83704	1031.55225	-1239.66113	852.16968	895.72052	-1210.11560	826.15552	797.25238	-1256.33459	854.30621	796.11774	-1248.98938	835.18280	722.92017	-866.51544	848.36267	931.01202	-1100.46460	831.95325	942.37079	-922.59338	1006.49048	953.98254	-1070.38953	993.57605	973.94525	-828.26111	835.52197	630.10669	-854.21222	775.62225	461.36755	-866.64923	914.93286	324.45520	-914.42511	1056.04871	175.04280	-954.87134	1108.85730	174.01570	-937.07007	965.85901	58.22325	-1149.27209	878.07428	646.31311	-1108.62598	865.12500	468.33533	-1120.28516	920.92340	281.65433	-1080.21948	974.61853	70.43332	-1035.69006	1025.30188	39.18898	-1056.85266	837.04797	32.23074	-957.91180	931.08722	1678.24744																					 
27	0.260	-914.41199	827.37421	1624.17676	-1046.66187	838.32404	1629.60608	-909.67822	950.76233	1569.48022	-1040.27124	956.88190	1574.58801	-976.52905	970.68347	1408.24707	-984.30255	988.70428	1097.62280	-973.06287	843.64545	1340.60474	-967.13287	789.92914	1177.39453	-1074.84705	1008.51801	1232.55017	-819.19965	903.37482	1375.26404	-750.39246	900.43414	1177.95093	-742.46143	875.36401	1057.03455	-751.88507	808.68005	946.53204	-792.94702	747.54144	848.56317	-743.31311	772.28870	838.88654	-759.12018	723.65027	771.34857	-1133.95972	886.93579	1363.42957	-1213.72668	870.00714	1143.85730	-1230.75586	847.17255	1033.84509	-1240.92151	827.95697	898.51520	-1210.93140	800.93866	799.95520	-1258.07312	827.35126	799.05750	-1251.19043	806.15222	726.54456	-866.89575	836.16345	932.23254	-1100.95801	820.18384	941.58551	-922.78821	994.43030	954.73914	-1070.78186	981.42651	973.93701	-827.92706	818.11853	633.12280	-854.67212	754.70721	465.63574	-866.67358	888.10608	322.31049	-914.09485	1021.28113	165.27724	-954.83783	1074.20703	160.58923	-935.69489	923.82172	54.89201	-1148.63428	869.61053	645.69788	-1108.70911	860.87158	467.50571	-1120.29004	918.85303	281.62283	-1080.09302	974.35571	70.85796	-1035.51196	1025.17529	39.87021	-1056.75549	836.97717	32.21276	-957.76141	918.12268	1678.73804																					 
